# xmcd CD database file
#
# Track frame offsets:
#	150
#	2170
#	25402
#	35930
#	52965
#	74497
#	99312
#	118972
#	140662
#	153252
#	178667
#	193547
#	211015
#	234427
#	237787
#
# Disc length: 3420 seconds
#
# Revision: 0
# Processed by: cddbd v1.5.2PL0 Copyright (c) Steve Scherf et al.
# Submitted via: CDex 1.60beta1-cs1
#
DISCID=ce0d5a0f
DTITLE=J. Rawls - The Liquid Crystal Project
DYEAR=2006
DGENRE=Jazz
TTITLE0=Liquid Intro
TTITLE1=The D E Effect
TTITLE2=Heart Throb
TTITLE3=Infancy
TTITLE4=A Tribute To Dilla
TTITLE5=Remember When
TTITLE6=Simple Game Plan
TTITLE7=So Fly
TTITLE8=Still Talking It EZ
TTITLE9=A Tribute To Bobby
TTITLE10=Keep On Runnin
TTITLE11=Cao
TTITLE12=A Tribute To Troy
TTITLE13=Crystal Outro
TTITLE14=Davita
EXTD=YEAR: 2006
EXTT0=
EXTT1=
EXTT2=
EXTT3=
EXTT4=
EXTT5=
EXTT6=
EXTT7=
EXTT8=
EXTT9=
EXTT10=
EXTT11=
EXTT12=
EXTT13=
EXTT14=
PLAYORDER=
